# xmcd
#
# Track frame offsets: 
#        150
#        22235
#        47037
#        75817
#        107685
#        127565
#        150127
#        162280
#        192797
#        219445
#
# Disc length: 3244 seconds
#
# Revision: 2
# Processed by: cddbd v1.5.2PL0 Copyright (c) Steve Scherf et al.
# Submitted via: ExactAudioCopyFreeDBPlugin 1.0
#
DISCID=680caa0a
DTITLE=Warren Wolf - Incredible Jazz Vibes
DYEAR=2005
DGENRE=Jazz
TTITLE0=I Hear A Rhapsody
TTITLE1=Overjoyed
TTITLE2=I Want More
TTITLE3=Masquerade Is Over
TTITLE4=Four On Six
TTITLE5=Why Is There A Dolphin On Green Street
TTITLE6=Reflections
TTITLE7=Howling Wolf
TTITLE8=Lake Nerraw Flow
TTITLE9=Chan's Song
EXTD=YEAR: 2005
EXTT0=
EXTT1=
EXTT2=
EXTT3=
EXTT4=
EXTT5=
EXTT6=
EXTT7=
EXTT8=
EXTT9=
PLAYORDER=
